<svg width="64" height="64" viewBox="0 0 64 64" fill="none" xmlns="http://www.w3.org/2000/svg">
  <defs>
    <linearGradient id="bg" x1="8" y1="8" x2="56" y2="56" gradientUnits="userSpaceOnUse">
      <stop stop-color="#0EA5E9"/>
      <stop offset="0.55" stop-color="#22C55E"/>
      <stop offset="1" stop-color="#F59E0B"/>
    </linearGradient>
    <filter id="shadow" x="-20%" y="-20%" width="140%" height="140%">
      <feDropShadow dx="0" dy="2" stdDeviation="2" flood-opacity="0.25"/>
    </filter>
  </defs>

  <rect x="6" y="6" width="52" height="52" rx="12" fill="url(#bg)"/>

  <!-- Apartment building -->
  <g filter="url(#shadow)">
    <path
      d="M22 46V23.5C22 22.7 22.37 22.02 23 21.6L31 16.2C31.61 15.79 32.39 15.79 33 16.2L41 21.6C41.63 22.02 42 22.7 42 23.5V46"
      stroke="#FFFFFF"
      stroke-width="3.2"
      stroke-linecap="round"
      stroke-linejoin="round"
    />

    <!-- Windows -->
    <path d="M27.5 26.5H27.6" stroke="#FFFFFF" stroke-width="3.2" stroke-linecap="round"/>
    <path d="M36.4 26.5H36.5" stroke="#FFFFFF" stroke-width="3.2" stroke-linecap="round"/>
    <path d="M27.5 33.2H27.6" stroke="#FFFFFF" stroke-width="3.2" stroke-linecap="round"/>
    <path d="M36.4 33.2H36.5" stroke="#FFFFFF" stroke-width="3.2" stroke-linecap="round"/>

    <!-- Door -->
    <path
      d="M29.2 46V39.5C29.2 38.6 29.94 37.9 30.85 37.9H33.15C34.06 37.9 34.8 38.6 34.8 39.5V46"
      stroke="#FFFFFF"
      stroke-width="3.2"
      stroke-linecap="round"
      stroke-linejoin="round"
    />
  </g>
</svg>

